<svg width="84" height="88" xmlns="http://www.w3.org/2000/svg" xmlns:xlink="http://www.w3.org/1999/xlink" overflow="hidden"><defs><clipPath id="clip0"><rect x="1040" y="522" width="84" height="88"/></clipPath></defs><g clip-path="url(#clip0)" transform="translate(-1040 -522)"><path d="M1084.66 522C1090.5 522 1096.03 522.945 1101.23 524.836 1106.43 526.727 1110.98 529.473 1114.9 533.076 1116.86 534.878 1118.62 536.866 1120.16 539.042L1123 544.026 1123 583.12 1121.53 585.621C1119.67 588.154 1117.47 590.062 1114.9 591.346 1112.34 592.631 1109.63 593.273 1106.78 593.273 1104.5 593.273 1102.61 592.952 1101.12 592.309 1099.62 591.667 1098.38 590.811 1097.38 589.741 1095.81 590.597 1093.92 591.328 1091.72 591.935 1089.51 592.541 1087.3 592.845 1085.09 592.845 1081.67 592.845 1078.56 592.309 1075.74 591.239 1072.93 590.169 1070.49 588.582 1068.42 586.477 1066.36 584.372 1064.75 581.786 1063.61 578.718 1062.47 575.651 1061.9 572.083 1061.9 568.017 1061.9 564.592 1062.44 561.364 1063.51 558.332 1064.58 555.3 1066.16 552.66 1068.26 550.413 1070.36 548.165 1072.93 546.4 1075.96 545.115 1078.98 543.831 1082.42 543.189 1086.27 543.189 1089.9 543.189 1093.23 543.475 1096.26 544.045 1099.28 544.616 1101.62 545.187 1103.26 545.758L1103.26 578.504C1103.26 580.787 1103.65 582.393 1104.43 583.32 1105.21 584.248 1106.25 584.711 1107.53 584.711 1109.38 584.711 1111 584.069 1112.39 582.785 1113.78 581.501 1114.92 579.824 1115.81 577.755 1116.7 575.686 1117.36 573.35 1117.79 570.746 1118.21 568.142 1118.43 565.484 1118.43 562.773 1118.43 558.278 1117.64 554.051 1116.08 550.092 1114.51 546.132 1112.27 542.654 1109.35 539.658 1106.43 536.661 1102.88 534.307 1098.71 532.595 1094.55 530.882 1089.86 530.026 1084.66 530.026 1079.46 530.026 1074.69 530.9 1070.35 532.648 1066 534.396 1062.26 536.893 1059.13 540.139 1055.99 543.385 1053.55 547.363 1051.81 552.071 1050.06 556.78 1049.19 562.131 1049.19 568.124 1049.19 574.402 1050.12 579.913 1051.97 584.658 1053.82 589.402 1056.4 593.362 1059.71 596.537 1063.03 599.711 1066.94 602.101 1071.47 603.707 1075.99 605.312 1080.96 606.115 1086.37 606.115 1090.58 606.115 1094.05 605.865 1096.79 605.365 1099.53 604.866 1101.3 604.474 1102.08 604.188L1102.73 609 1062.65 609 1060.52 608.068C1058.06 606.676 1055.78 605.044 1053.68 603.172 1049.47 599.426 1046.14 594.646 1043.69 588.831 1041.23 583.017 1040 576.114 1040 568.124 1040 560.419 1041.21 553.677 1043.63 547.898 1046.05 542.119 1049.31 537.321 1053.41 533.504 1057.51 529.687 1062.24 526.816 1067.62 524.889 1073 522.963 1078.68 522 1084.66 522ZM1087.01 551.429C1081.96 551.429 1078.18 552.999 1075.69 556.138 1073.19 559.277 1071.95 563.237 1071.95 568.017 1071.95 573.082 1073.16 577.113 1075.58 580.11 1078 583.106 1081.28 584.604 1085.41 584.604 1086.91 584.604 1088.42 584.444 1089.95 584.123 1091.48 583.802 1092.86 583.32 1094.07 582.678 1093.85 581.751 1093.71 580.823 1093.64 579.896 1093.57 578.968 1093.53 578.076 1093.53 577.22L1093.53 552.071C1093.1 551.929 1092.29 551.786 1091.07 551.643 1089.86 551.501 1088.51 551.429 1087.01 551.429Z" fill="#FFFFFF" fill-rule="evenodd"/></g></svg>