<svg width="50" height="49" xmlns="http://www.w3.org/2000/svg" xmlns:xlink="http://www.w3.org/1999/xlink" overflow="hidden"><defs><clipPath id="clip0"><rect x="44" y="331" width="50" height="49"/></clipPath></defs><g clip-path="url(#clip0)" transform="translate(-44 -331)"><path d="M68.9999 339C73.42 339 77 342.58 77 347 77 351.42 73.42 355 68.9999 355 64.58 355 61 351.42 61 347 61 342.58 64.58 339 68.9999 339Z" fill="#7F7F7F" fill-rule="evenodd"/><path d="M68.2412 360 71.3974 360.328 71.3974 362.164C71.3974 365.111 72.4323 367.963 74.1626 370.245L76 372 52 372 52 368C52 362.68 62.8207 360 68.2412 360Z" fill="#7F7F7F" fill-rule="evenodd"/><path d="M81 363 82 363 82 364 81 363Z" fill="#7F7F7F" fill-rule="evenodd"/><path d="M81.5 353 74 356.273 74 361.182C74 365.723 77.2 369.969 81.5 371 85.8 369.969 89 365.723 89 361.182L89 356.273 81.5 353ZM81.5 361.992 87.3333 361.992C86.8917 365.363 84.6 368.366 81.5 369.306L81.5 362 75.6667 362 75.6667 357.336 81.5 354.792 81.5 361.992Z" fill="#7F7F7F" fill-rule="evenodd"/></g></svg>