<svg width="50" height="50" xmlns="http://www.w3.org/2000/svg" xmlns:xlink="http://www.w3.org/1999/xlink" overflow="hidden"><defs><clipPath id="clip0"><rect x="46" y="390" width="50" height="50"/></clipPath></defs><g clip-path="url(#clip0)" transform="translate(-46 -390)"><path d="M83.9091 395 75.0455 404.024 75.0455 423.878 83.9091 415.756 83.9091 395ZM52 404.024 52 430.466C52 430.917 52.4431 431.368 52.8865 431.368 53.0636 431.368 53.1522 431.278 53.3296 431.278 55.7228 430.105 59.1795 429.293 61.7501 429.293 65.2068 429.293 68.9296 430.015 71.5 432L71.5 404.024C68.9296 402.039 65.2068 401.317 61.7501 401.317 58.2932 401.317 54.5704 402.039 52 404.024ZM91 428.39 91 404.024C89.9364 403.212 88.7841 402.671 87.4545 402.22L87.4545 426.586C85.5046 425.954 83.3774 425.683 81.2501 425.683 78.2364 425.683 73.8932 426.856 71.5 428.39L71.5 432C73.8932 430.466 78.2364 429.293 81.2501 429.293 84.175 429.293 87.1886 429.834 89.6704 431.188 89.8478 431.278 89.9364 431.278 90.1137 431.278 90.5569 431.278 91 430.827 91 430.376L91 428.39Z" fill="#7F7F7F" fill-rule="evenodd"/></g></svg>