<svg width="50" height="50" xmlns="http://www.w3.org/2000/svg" xmlns:xlink="http://www.w3.org/1999/xlink" overflow="hidden"><defs><clipPath id="clip0"><rect x="44" y="169" width="50" height="50"/></clipPath></defs><g clip-path="url(#clip0)" transform="translate(-44 -169)"><path d="M69 178C73.42 178 77 181.58 77 186 77 190.42 73.42 194 69 194 64.58 194 61 190.42 61 186 61 181.58 64.58 178 69 178Z" fill="#7F7F7F" fill-rule="evenodd"/><path d="M68.3394 198 72 198.378 70.4239 200.668C69.9071 201.864 69.6213 203.179 69.6213 204.56 69.6213 205.941 69.9071 207.256 70.4239 208.452L71.4894 210 52 210 52 206C52 200.68 62.8862 198 68.3394 198Z" fill="#7F7F7F" fill-rule="evenodd"/><path d="M79.991 196C75.023 196 71 199.808 71 204.5 71 209.192 75.023 213 79.991 213 84.9681 213 89.0001 209.192 89.0001 204.5 89.0001 199.808 84.9681 196 79.991 196ZM80 211.3C76.022 211.3 72.8 208.257 72.8 204.5 72.8 200.743 76.022 197.7 80 197.7 83.978 197.7 87.2 200.743 87.2 204.5 87.2 208.257 83.978 211.3 80 211.3Z" fill="#7F7F7F" fill-rule="evenodd"/><path d="M80.25 200 79 200 79 205.246 83.375 208 84 206.925 80.25 204.59Z" fill="#7F7F7F" fill-rule="evenodd"/></g></svg>