<svg width="50" height="49" xmlns="http://www.w3.org/2000/svg" xmlns:xlink="http://www.w3.org/1999/xlink" overflow="hidden"><defs><clipPath id="clip0"><rect x="44" y="229" width="50" height="49"/></clipPath></defs><g clip-path="url(#clip0)" transform="translate(-44 -229)"><path d="M67.4751 247.313C64.646 247.313 62.35 249.622 62.35 252.469 62.35 255.315 64.646 257.625 67.4751 257.625 70.304 257.625 72.6 255.315 72.6 252.469 72.6 249.622 70.304 247.313 67.4751 247.313ZM84.9 237 52.1 237C49.8451 237 48 238.856 48 241.125L48 265.875C48 268.144 49.8451 270 52.1 270L84.9 270C87.1551 270 89 268.144 89 265.875L89 241.125C89 238.856 87.1551 237 84.9 237ZM78.3195 266.308 72.354 260.306C70.9396 261.214 69.2584 261.75 67.4544 261.75 62.3704 261.75 58.25 257.604 58.25 252.469 58.25 247.333 62.3704 243.188 67.4751 243.188 72.5796 243.188 76.7 247.333 76.7 252.469 76.7 254.284 76.1671 255.954 75.2651 257.398L81.2304 263.379 78.3195 266.308Z" fill="#7F7F7F" fill-rule="evenodd"/></g></svg>