<svg width="25" height="26" xmlns="http://www.w3.org/2000/svg" xmlns:xlink="http://www.w3.org/1999/xlink" overflow="hidden"><defs><clipPath id="clip0"><rect x="761" y="113" width="25" height="26"/></clipPath></defs><g clip-path="url(#clip0)" transform="translate(-761 -113)"><path d="M780 132 782 133 782 117C782 115.9 781.1 115 780 115L769.99 115C768.89 115 768 115.9 768 117L778 117C779.1 117 780 117.9 780 119L780 132ZM776 119 766 119C764.9 119 764 119.9 764 121L764 137 771 134 778 137 778 121C778 119.9 777.1 119 776 119Z" fill="#9966FF" fill-rule="evenodd"/></g></svg>