<svg width="24" height="24" xmlns="http://www.w3.org/2000/svg" xmlns:xlink="http://www.w3.org/1999/xlink" overflow="hidden"><defs><clipPath id="clip0"><rect x="1073" y="410" width="24" height="24"/></clipPath></defs><g clip-path="url(#clip0)" transform="translate(-1073 -410)"><path d="M1089.22 421.45 1084.5 421.45 1084.5 426.2 1089.22 426.2 1089.22 421.45ZM1088.28 411 1088.28 412.9 1080.72 412.9 1080.72 411 1078.83 411 1078.83 412.9 1077.89 412.9C1076.84 412.9 1076.01 413.755 1076.01 414.8L1076 428.1C1076 429.145 1076.84 430 1077.89 430L1091.11 430C1092.15 430 1093 429.145 1093 428.1L1093 414.8C1093 413.755 1092.15 412.9 1091.11 412.9L1090.17 412.9 1090.17 411 1088.28 411ZM1091.11 428.1 1077.89 428.1 1077.89 417.65 1091.11 417.65 1091.11 428.1Z" fill="#7F7F7F" fill-rule="evenodd"/></g></svg>