<svg width="31" height="28" xmlns="http://www.w3.org/2000/svg" xmlns:xlink="http://www.w3.org/1999/xlink" overflow="hidden"><defs><clipPath id="clip0"><rect x="359" y="27" width="31" height="28"/></clipPath></defs><g clip-path="url(#clip0)" transform="translate(-359 -27)"><path d="M378 34C378 37.3137 375.314 40 372 40 368.686 40 366 37.3137 366 34 366 30.6863 368.686 28 372 28 375.314 28 378 30.6863 378 34Z" fill="#BFBFBF" fill-rule="evenodd"/><path d="M372.254 43.0077C368.247 42.8575 360 44.8992 360 48.9977L360 50.4989C360 51.3245 360.66 52.0002 361.467 52.0002L374 52.0002C370.375 47.8568 372.195 43.1578 372.254 43.0077Z" fill="#BFBFBF" fill-rule="evenodd"/><path d="M386.645 49.4106C387.381 48.1589 387.741 46.6412 387.397 44.9984 386.864 42.4324 384.703 40.3827 382.104 40.0542 377.985 39.5223 374.509 42.9801 375.057 47.095 375.402 49.6922 377.437 51.8514 380.005 52.3833 381.65 52.7276 383.169 52.3677 384.421 51.6323L387.334 54.5425C387.945 55.1526 388.931 55.1526 389.542 54.5425L389.542 54.5425C390.153 53.9323 390.153 52.9465 389.542 52.3363L386.645 49.4106ZM381.274 49.3792C379.551 49.3792 378.142 47.9712 378.142 46.25 378.142 44.5291 379.551 43.1208 381.274 43.1208 382.996 43.1208 384.406 44.5291 384.406 46.25 384.406 47.9712 382.996 49.3792 381.274 49.3792Z" fill="#BFBFBF" fill-rule="evenodd"/></g></svg>