<svg width="188" height="47" xmlns="http://www.w3.org/2000/svg" xmlns:xlink="http://www.w3.org/1999/xlink" overflow="hidden"><defs><clipPath id="clip0"><rect x="52" y="55" width="188" height="47"/></clipPath></defs><g clip-path="url(#clip0)" transform="translate(-52 -55)"><path d="M131 57 131 73.4176C130.581 73.547 130.044 73.6764 129.389 73.8059 128.734 73.9353 127.98 74 127.129 74 126.343 74 125.635 73.8635 125.007 73.5901 124.378 73.3168 123.841 72.9286 123.395 72.4252 122.95 71.9217 122.606 71.307 122.364 70.5806 122.121 69.8543 122 69.0381 122 68.132 122 67.2691 122.102 66.478 122.305 65.7589 122.508 65.0397 122.806 64.4213 123.199 63.9036 123.592 63.3858 124.073 62.983 124.643 62.6954 125.213 62.4077 125.865 62.264 126.598 62.264 127.188 62.264 127.709 62.3503 128.16 62.5228 128.612 62.6954 128.95 62.8608 129.173 63.0191L129.173 57.3451 131 57ZM126.834 64.033C126.31 64.033 125.861 64.1373 125.488 64.3458 125.115 64.5544 124.81 64.842 124.574 65.2087 124.338 65.5756 124.168 66.0105 124.063 66.514 123.959 67.0174 123.906 67.5567 123.906 68.132 123.906 69.4408 124.201 70.4511 124.79 71.1631 125.38 71.875 126.166 72.231 127.148 72.231 127.646 72.231 128.062 72.2058 128.396 72.1555 128.73 72.1051 128.989 72.0512 129.173 71.9937L129.173 64.896C128.95 64.6946 128.629 64.5005 128.21 64.3134 127.79 64.1265 127.332 64.033 126.834 64.033Z" fill="#7F7F7F" fill-rule="evenodd"/><path d="M153.5 58C153.917 58 154.271 58.1352 154.562 58.4057 154.854 58.6761 155 59.0409 155 59.4999 155 59.959 154.854 60.3237 154.562 60.5942 154.271 60.8648 153.917 61 153.5 61 153.083 61 152.729 60.8648 152.437 60.5942 152.146 60.3237 152 59.959 152 59.4999 152 59.0409 152.146 58.6761 152.437 58.4057 152.729 58.1352 153.083 58 153.5 58Z" fill="#7F7F7F" fill-rule="evenodd"/><path d="M113.606 59 115.394 59C115.876 60.0822 116.339 61.1753 116.781 62.2793 117.223 63.3831 117.668 64.5411 118.117 65.7533 118.565 66.9654 119.024 68.246 119.493 69.5952 119.962 70.9444 120.464 72.4128 121 74L118.87 74C118.643 73.3506 118.428 72.7122 118.227 72.0844 118.026 71.4567 117.819 70.8181 117.604 70.1689L111.295 70.1689 110.029 74 108 74C108.536 72.4128 109.038 70.9444 109.507 69.5952 109.976 68.246 110.435 66.9654 110.883 65.7533 111.332 64.5411 111.777 63.3831 112.22 62.2793 112.662 61.1753 113.124 60.0822 113.606 59ZM114.45 61.4025C113.981 62.4849 113.536 63.6139 113.114 64.79 112.692 65.966 112.273 67.1818 111.858 68.4373L117.042 68.4373C116.613 67.1818 116.188 65.966 115.766 64.79 115.344 63.6139 114.905 62.4849 114.45 61.4025Z" fill="#7F7F7F" fill-rule="evenodd"/><path d="M138.371 63C139.078 63 139.672 63.0932 140.153 63.2796 140.634 63.466 141.037 63.7388 141.362 64.0979 141.461 64.0288 141.617 63.9322 141.829 63.8079 142.041 63.6836 142.303 63.5628 142.614 63.4453 142.925 63.328 143.272 63.2244 143.653 63.1346 144.035 63.0448 144.446 63 144.884 63 145.733 63 146.426 63.1209 146.963 63.3625 147.501 63.6042 147.921 63.946 148.226 64.3879 148.53 64.8299 148.735 65.3547 148.841 65.9623 148.947 66.57 149 67.2329 149 67.951L149 74 147.027 74 147.027 68.3653C147.027 67.73 146.995 67.1846 146.931 66.7288 146.868 66.2731 146.748 65.8933 146.571 65.5894 146.394 65.2856 146.153 65.0612 145.849 64.9162 145.545 64.7712 145.153 64.6987 144.672 64.6987 144.007 64.6987 143.459 64.785 143.028 64.9576 142.596 65.1302 142.303 65.2856 142.147 65.4237 142.26 65.7828 142.345 66.1764 142.402 66.6045 142.458 67.0326 142.487 67.4815 142.487 67.951L142.487 74 140.513 74 140.513 68.3653C140.513 67.73 140.478 67.1846 140.407 66.7288 140.337 66.2731 140.213 65.8933 140.036 65.5894 139.859 65.2856 139.619 65.0612 139.315 64.9162 139.011 64.7712 138.625 64.6987 138.158 64.6987 137.96 64.6987 137.748 64.7055 137.522 64.7194 137.296 64.7332 137.08 64.7505 136.875 64.7712 136.67 64.7919 136.482 64.816 136.313 64.8437 136.143 64.8713 136.03 64.892 135.973 64.9058L135.973 74 134 74 134 63.5385C134.453 63.4281 135.05 63.3107 135.793 63.1864 136.535 63.0621 137.395 63 138.371 63Z" fill="#7F7F7F" fill-rule="evenodd"/><path d="M162.436 63C163.321 63 164.057 63.1209 164.643 63.3625 165.229 63.6042 165.696 63.9426 166.046 64.3775 166.396 64.8126 166.643 65.334 166.786 65.9416 166.929 66.5493 167 67.219 167 67.951L167 74 165.007 74 165.007 68.3653C165.007 67.7024 164.961 67.1362 164.868 66.6666 164.775 66.1971 164.621 65.8173 164.407 65.5273 164.193 65.2372 163.907 65.0267 163.55 64.8955 163.193 64.7642 162.75 64.6987 162.221 64.6987 162.007 64.6987 161.786 64.7055 161.557 64.7194 161.329 64.7332 161.111 64.7505 160.904 64.7712 160.696 64.7919 160.511 64.816 160.346 64.8437 160.182 64.8713 160.064 64.892 159.993 64.9058L159.993 74 158 74 158 63.5385C158.457 63.4281 159.064 63.3107 159.821 63.1864 160.579 63.0621 161.45 63 162.436 63Z" fill="#7F7F7F" fill-rule="evenodd"/><path d="M152 63 154 63 154 74 152 74 152 63Z" fill="#7F7F7F" fill-rule="evenodd"/><path d="M176.175 83 176.175 96.5178C176.175 96.8494 176.207 97.1234 176.269 97.3397 176.331 97.5559 176.433 97.7291 176.573 97.8588 176.713 97.9886 176.901 98.0859 177.134 98.1508 177.368 98.2156 177.657 98.2697 178 98.313L177.696 100C176.355 99.9712 175.403 99.7045 174.842 99.1997 174.281 98.6951 174 97.9093 174 96.8423L174 83.346 176.175 83Z" fill="#9933FF" fill-rule="evenodd"/><path d="M237.175 83 237.175 96.5178C237.175 96.8494 237.207 97.1234 237.269 97.3397 237.331 97.5559 237.433 97.7291 237.573 97.8588 237.713 97.9886 237.901 98.0859 238.135 98.1508 238.368 98.2156 238.657 98.2697 239 98.313L238.696 100C237.355 99.9712 236.404 99.7045 235.842 99.1997 235.281 98.6951 235 97.9093 235 96.8423L235 83.346 237.175 83Z" fill="#9933FF" fill-rule="evenodd"/><path d="M115.78 85C116.367 85 116.897 85.0414 117.368 85.1243 117.839 85.2073 118.249 85.3039 118.597 85.4144 118.945 85.5249 119.228 85.6353 119.447 85.7459 119.665 85.8564 119.816 85.9392 119.898 85.9946L119.324 87.652C119.201 87.5691 119.024 87.4794 118.791 87.3826 118.559 87.286 118.296 87.1892 118.003 87.0926 117.709 86.9958 117.388 86.9165 117.04 86.8544 116.692 86.7921 116.34 86.761 115.985 86.761 115.234 86.761 114.558 86.8923 113.957 87.1547 113.356 87.4172 112.844 87.797 112.421 88.2942 111.997 88.7915 111.673 89.3958 111.448 90.107 111.222 90.8184 111.11 91.6161 111.11 92.5 111.11 93.3564 111.209 94.1367 111.407 94.8412 111.605 95.5456 111.902 96.1499 112.298 96.654 112.694 97.1582 113.189 97.5484 113.783 97.8246 114.377 98.1009 115.07 98.239 115.862 98.239 116.777 98.239 117.535 98.1423 118.136 97.9489 118.737 97.7556 119.187 97.5829 119.488 97.4309L120 99.0884C119.904 99.1575 119.734 99.2439 119.488 99.3475 119.242 99.451 118.935 99.5512 118.566 99.6478 118.197 99.7445 117.767 99.8274 117.276 99.8964 116.784 99.9655 116.251 100 115.678 100 114.681 100 113.773 99.8343 112.953 99.5028 112.134 99.1713 111.431 98.6879 110.844 98.0525 110.256 97.4172 109.802 96.6333 109.481 95.701 109.16 94.7687 109 93.7017 109 92.5 109 91.2984 109.181 90.2314 109.543 89.2991 109.905 88.3667 110.393 87.5829 111.007 86.9476 111.622 86.3122 112.339 85.8287 113.158 85.4973 113.978 85.1658 114.852 85 115.78 85Z" fill="#9933FF" fill-rule="evenodd"/><path d="M191.156 85C193.355 85 195.045 85.3964 196.227 86.1892 197.409 86.9821 198 88.1643 198 89.7357 198 90.5928 197.838 91.3249 197.514 91.9322 197.191 92.5393 196.724 93.0322 196.114 93.4107 195.504 93.7893 194.763 94.0643 193.889 94.2357 193.016 94.4072 192.029 94.4929 190.93 94.4929L189.191 94.4929 189.191 100 187 100 187 85.3642C187.617 85.2213 188.306 85.1249 189.067 85.075 189.827 85.025 190.524 85 191.156 85ZM191.337 86.8214C190.403 86.8214 189.688 86.8428 189.191 86.8857L189.191 92.7143 190.84 92.7143C191.593 92.7143 192.27 92.6678 192.873 92.5749 193.475 92.4822 193.983 92.325 194.397 92.1036 194.812 91.8821 195.131 91.5785 195.357 91.1929 195.583 90.8071 195.696 90.3143 195.696 89.7142 195.696 89.1428 195.579 88.6713 195.346 88.2999 195.113 87.9285 194.796 87.6321 194.397 87.4106 193.998 87.1892 193.535 87.0357 193.008 86.95 192.481 86.8643 191.924 86.8214 191.337 86.8214Z" fill="#9933FF" fill-rule="evenodd"/><path d="M148.1 85 148.1 88.4899 152.548 88.4899 152.548 90.1806 148.1 90.1806 148.1 95.383C148.1 95.9466 148.145 96.4126 148.235 96.7811 148.326 97.1496 148.461 97.4386 148.642 97.6482 148.823 97.8577 149.048 98.0058 149.319 98.0925 149.59 98.1792 149.906 98.2225 150.268 98.2225 150.9 98.2225 151.408 98.1539 151.792 98.0166 152.176 97.8793 152.443 97.7818 152.593 97.7241L153 99.3931C152.789 99.4942 152.42 99.6207 151.893 99.7724 151.367 99.9241 150.764 100 150.087 100 149.289 100 148.631 99.9025 148.111 99.7074 147.592 99.5123 147.174 99.2196 146.858 98.8295 146.542 98.4394 146.32 97.9589 146.192 97.388 146.064 96.8172 146 96.1561 146 95.4046L146 85.3468 148.1 85Z" fill="#9933FF" fill-rule="evenodd"/><path d="M127 89C127.724 89 128.393 89.1309 129.008 89.3928 129.623 89.6548 130.152 90.0275 130.596 90.511 131.04 90.9945 131.385 91.5754 131.631 92.2537 131.877 92.9319 132 93.6807 132 94.5001 132 95.3327 131.877 96.0849 131.631 96.7564 131.385 97.428 131.04 98.0055 130.596 98.4891 130.152 98.9725 129.623 99.3453 129.008 99.6072 128.393 99.8691 127.724 100 127 100 126.276 100 125.607 99.8691 124.992 99.6072 124.377 99.3453 123.848 98.9725 123.404 98.4891 122.96 98.0055 122.615 97.428 122.369 96.7564 122.123 96.0849 122 95.3327 122 94.5001 122 93.6807 122.123 92.9319 122.369 92.2537 122.615 91.5754 122.96 90.9945 123.404 90.511 123.848 90.0275 124.377 89.6548 124.992 89.3928 125.607 89.1309 126.276 89 127 89ZM127 90.652C126.071 90.652 125.337 90.9979 124.797 91.6895 124.257 92.3813 123.988 93.3181 123.988 94.5001 123.988 95.6819 124.257 96.6188 124.797 97.3105 125.337 98.0022 126.071 98.348 127 98.348 127.929 98.348 128.663 98.0022 129.203 97.3105 129.742 96.6188 130.012 95.6819 130.012 94.5001 130.012 93.3181 129.742 92.3813 129.203 91.6895 128.663 90.9979 127.929 90.652 127 90.652Z" fill="#9933FF" fill-rule="evenodd"/><path d="M167 89C167.724 89 168.393 89.1309 169.008 89.3928 169.623 89.6548 170.152 90.0275 170.596 90.511 171.04 90.9945 171.385 91.5754 171.631 92.2537 171.877 92.9319 172 93.6807 172 94.5001 172 95.3327 171.877 96.0849 171.631 96.7564 171.385 97.428 171.04 98.0055 170.596 98.4891 170.152 98.9725 169.623 99.3453 169.008 99.6072 168.393 99.8691 167.724 100 167 100 166.276 100 165.607 99.8691 164.992 99.6072 164.377 99.3453 163.848 98.9725 163.404 98.4891 162.96 98.0055 162.615 97.428 162.369 96.7564 162.123 96.0849 162 95.3327 162 94.5001 162 93.6807 162.123 92.9319 162.369 92.2537 162.615 91.5754 162.96 90.9945 163.404 90.511 163.848 90.0275 164.377 89.6548 164.992 89.3928 165.607 89.1309 166.276 89 167 89ZM167 90.652C166.071 90.652 165.337 90.9979 164.797 91.6895 164.258 92.3813 163.988 93.3181 163.988 94.5001 163.988 95.6819 164.258 96.6188 164.797 97.3105 165.337 98.0022 166.071 98.348 167 98.348 167.929 98.348 168.663 98.0022 169.203 97.3105 169.742 96.6188 170.012 95.6819 170.012 94.5001 170.012 93.3181 169.742 92.3813 169.203 91.6895 168.663 90.9979 167.929 90.652 167 90.652Z" fill="#9933FF" fill-rule="evenodd"/><path d="M204.049 89C204.787 89 205.409 89.0978 205.916 89.2932 206.423 89.4887 206.831 89.765 207.141 90.1222 207.45 90.4795 207.671 90.904 207.802 91.3962 207.934 91.8882 208 92.4307 208 93.0239L208 99.5956C207.842 99.6226 207.621 99.6596 207.338 99.7068 207.055 99.754 206.736 99.7978 206.38 99.8383 206.025 99.8787 205.639 99.9158 205.225 99.9495 204.81 99.9832 204.398 100 203.99 100 203.411 100 202.877 99.9393 202.39 99.818 201.903 99.6967 201.481 99.5047 201.126 99.2417 200.77 98.9789 200.494 98.6317 200.296 98.2004 200.099 97.769 200 97.25 200 96.6434 200 96.0637 200.115 95.5649 200.346 95.147 200.576 94.7291 200.889 94.3922 201.284 94.136 201.679 93.8799 202.14 93.6912 202.667 93.5698 203.193 93.4485 203.747 93.3878 204.326 93.3878 204.51 93.3878 204.701 93.398 204.899 93.4182 205.096 93.4384 205.284 93.4654 205.462 93.499 205.639 93.5328 205.794 93.5631 205.926 93.59 206.058 93.617 206.15 93.6372 206.202 93.6507L206.202 93.125C206.202 92.815 206.17 92.5083 206.104 92.205 206.038 91.9016 205.919 91.632 205.748 91.3962 205.577 91.1602 205.343 90.9715 205.047 90.8299 204.751 90.6884 204.365 90.6177 203.891 90.6177 203.286 90.6177 202.756 90.6614 202.301 90.7491 201.847 90.8367 201.508 90.9277 201.284 91.022L201.067 89.465C201.304 89.3573 201.699 89.2527 202.252 89.1516 202.805 89.0505 203.404 89 204.049 89ZM204.484 94.9044C204.207 94.9044 203.914 94.9246 203.605 94.9651 203.296 95.0055 203.012 95.0898 202.756 95.2178 202.499 95.3459 202.285 95.5212 202.114 95.7436 201.942 95.966 201.857 96.2592 201.857 96.6232 201.857 97.2972 202.068 97.7657 202.489 98.0285 202.91 98.2914 203.483 98.4228 204.207 98.4228 204.642 98.4228 205.027 98.4127 205.363 98.3925 205.699 98.3722 205.979 98.3352 206.202 98.2813L206.202 95.147C206.071 95.0797 205.857 95.0224 205.561 94.9752 205.264 94.928 204.905 94.9044 204.484 94.9044Z" fill="#9933FF" fill-rule="evenodd"/><path d="M227.698 89C229.086 89 230.15 89.4407 230.89 90.322 231.63 91.2034 232 92.5455 232 94.3486 232 94.4293 232 94.5337 232 94.6615 232 94.7893 231.993 94.907 231.98 95.0147L224.923 95.0147C225.002 96.1046 225.313 96.9322 225.855 97.4972 226.396 98.0624 227.242 98.3449 228.392 98.3449 229.04 98.3449 229.585 98.2878 230.027 98.1734 230.47 98.0591 230.804 97.948 231.029 97.8404L231.286 99.4147C231.062 99.5358 230.669 99.6637 230.107 99.7982 229.545 99.9328 228.908 100 228.194 100 227.295 100 226.519 99.8622 225.865 99.5863 225.21 99.3104 224.672 98.9303 224.249 98.4459 223.826 97.9615 223.512 97.3862 223.307 96.7202 223.102 96.0541 223 95.3241 223 94.5303 223 93.6018 223.132 92.7911 223.397 92.0982 223.661 91.4052 224.011 90.8299 224.447 90.3724 224.883 89.915 225.385 89.5718 225.954 89.3431 226.522 89.1143 227.104 89 227.698 89ZM227.678 90.5945C227.256 90.5945 226.882 90.6786 226.558 90.8468 226.235 91.015 225.96 91.2336 225.736 91.5028 225.511 91.7719 225.336 92.0813 225.21 92.4312 225.085 92.781 225.002 93.1376 224.963 93.5009L230.077 93.5009C230.09 92.6532 229.882 91.9568 229.453 91.4119 229.023 90.867 228.432 90.5945 227.678 90.5945Z" fill="#9933FF" fill-rule="evenodd"/><path d="M138.436 89C139.321 89 140.057 89.1209 140.643 89.3625 141.229 89.6042 141.696 89.9426 142.046 90.3775 142.396 90.8126 142.643 91.334 142.786 91.9416 142.929 92.5493 143 93.219 143 93.951L143 100 141.007 100 141.007 94.3653C141.007 93.7024 140.961 93.1362 140.868 92.6666 140.775 92.1971 140.621 91.8173 140.407 91.5273 140.193 91.2372 139.907 91.0267 139.55 90.8955 139.193 90.7642 138.75 90.6987 138.221 90.6987 138.007 90.6987 137.786 90.7055 137.557 90.7194 137.329 90.7332 137.111 90.7505 136.904 90.7712 136.696 90.7919 136.511 90.816 136.346 90.8437 136.182 90.8713 136.064 90.892 135.993 90.9058L135.993 100 134 100 134 89.5385C134.457 89.4281 135.064 89.3107 135.821 89.1864 136.579 89.0621 137.45 89 138.436 89Z" fill="#9933FF" fill-rule="evenodd"/><path d="M158.541 89C158.73 89 158.947 89.0104 159.191 89.0311 159.435 89.0518 159.676 89.0794 159.912 89.1139 160.149 89.1484 160.365 89.183 160.563 89.2175 160.76 89.252 160.905 89.283 161 89.3107L160.622 90.9887C160.448 90.9335 160.161 90.8678 159.758 90.7919 159.356 90.716 158.84 90.678 158.21 90.678 157.8 90.678 157.394 90.716 156.992 90.7919 156.59 90.8678 156.325 90.9196 156.199 90.9472L156.199 100 154 100 154 89.6836C154.52 89.5178 155.167 89.3625 155.939 89.2175 156.712 89.0725 157.579 89 158.541 89Z" fill="#9933FF" fill-rule="evenodd"/><path d="M215.436 89C216.321 89 217.057 89.1209 217.643 89.3625 218.229 89.6042 218.696 89.9426 219.046 90.3775 219.396 90.8126 219.643 91.334 219.786 91.9416 219.929 92.5493 220 93.219 220 93.951L220 100 218.007 100 218.007 94.3653C218.007 93.7024 217.961 93.1362 217.868 92.6666 217.775 92.1971 217.621 91.8173 217.407 91.5273 217.193 91.2372 216.907 91.0267 216.55 90.8955 216.193 90.7642 215.75 90.6987 215.221 90.6987 215.007 90.6987 214.786 90.7055 214.557 90.7194 214.329 90.7332 214.111 90.7505 213.904 90.7712 213.696 90.7919 213.511 90.816 213.346 90.8437 213.182 90.8713 213.064 90.892 212.993 90.9058L212.993 100 211 100 211 89.5385C211.457 89.4281 212.064 89.3107 212.821 89.1864 213.579 89.0621 214.45 89 215.436 89Z" fill="#9933FF" fill-rule="evenodd"/><path d="M87.264 83.2356C87.7365 83.2356 88.164 83.2581 88.5466 83.3031 88.929 83.3481 89.1878 83.3931 89.3228 83.4381L89.3228 91.3694C89.3228 91.6394 89.3341 91.9206 89.3566 92.2131 89.379 92.5056 89.424 92.7981 89.4915 93.0906 89.1091 93.2931 88.6759 93.445 88.1922 93.5463 87.7084 93.6475 87.2303 93.6981 86.7578 93.6981 85.4528 93.6981 84.4178 93.2256 83.6528 92.2806 82.8878 91.3356 82.5053 90.0644 82.5053 88.4669 82.5053 86.9594 82.899 85.7106 83.6865 84.7206 84.474 83.7306 85.6665 83.2356 87.264 83.2356ZM86.5216 76.4856C88.164 76.4856 89.6434 76.7556 90.9597 77.2956 92.2759 77.8356 93.3953 78.5781 94.3178 79.5231 95.2403 80.4681 95.949 81.565 96.444 82.8137 96.939 84.0625 97.1865 85.3956 97.1865 86.8131 97.1865 87.6681 97.119 88.5062 96.9841 89.3275 96.849 90.1488 96.6409 90.8856 96.3596 91.5381 96.0784 92.1906 95.7184 92.7194 95.2797 93.1244 94.8409 93.5294 94.329 93.7319 93.744 93.7319 93.339 93.7319 93.0128 93.5856 92.7653 93.2931 92.5178 93.0006 92.3941 92.4944 92.3941 91.7744L92.3941 81.4469C91.8765 81.2669 91.1397 81.0869 90.1834 80.9069 89.2272 80.7269 88.1753 80.6369 87.0278 80.6369 85.8128 80.6369 84.7272 80.8394 83.7709 81.2444 82.8147 81.6494 82.0047 82.2063 81.3409 82.915 80.6772 83.6238 80.1765 84.4563 79.839 85.4125 79.5015 86.3688 79.3328 87.3869 79.3328 88.4669 79.3328 89.7494 79.5128 90.8744 79.8728 91.8419 80.2328 92.8093 80.739 93.625 81.3915 94.2887 82.0441 94.9525 82.8147 95.4531 83.7034 95.7906 84.5922 96.1281 85.5765 96.2968 86.6566 96.2968 87.354 96.2968 88.0515 96.2012 88.749 96.01 89.4466 95.8187 90.0428 95.5881 90.5378 95.3181 90.8528 95.6556 91.2466 95.9256 91.7191 96.1281 92.1915 96.3306 92.7878 96.4319 93.5078 96.4319 94.4078 96.4319 95.2628 96.2294 96.0728 95.8244L98 94.1614 98 102 92.31 102 92.0228 99.8744C91.7753 99.9644 91.2184 100.088 90.3522 100.246 89.4859 100.403 88.389 100.482 87.0615 100.482 85.3515 100.482 83.7822 100.229 82.3534 99.7225 80.9247 99.2162 79.6872 98.4625 78.6409 97.4613 77.5947 96.46 76.7791 95.2113 76.1941 93.715 75.6091 92.2188 75.3166 90.4806 75.3166 88.5006 75.3166 86.6106 75.5922 84.9231 76.1434 83.4381 76.6947 81.9531 77.4653 80.6988 78.4553 79.675 79.4453 78.6512 80.6265 77.8637 81.999 77.3125 83.3716 76.7613 84.879 76.4856 86.5216 76.4856ZM52 56 98 56 98 79.7941 97.7349 79.3291C97.2456 78.6428 96.6915 78.0156 96.0727 77.4475 94.8352 76.3113 93.3952 75.445 91.7528 74.8488 90.1102 74.2525 88.3665 73.9544 86.5215 73.9544 84.6315 73.9544 82.8371 74.2581 81.1384 74.8656 79.4396 75.4731 77.9434 76.3787 76.6496 77.5825 75.3559 78.7863 74.3265 80.2994 73.5615 82.1218 72.7965 83.9444 72.414 86.0706 72.414 88.5006 72.414 91.0206 72.8021 93.1975 73.5784 95.0313 74.3547 96.865 75.4065 98.3725 76.734 99.5537 77.3978 100.144 78.1177 100.659 78.894 101.098L80.9641 102 52 102Z" fill="#9966FF" fill-rule="evenodd"/></g></svg>