<svg width="413" height="99" xmlns="http://www.w3.org/2000/svg" xmlns:xlink="http://www.w3.org/1999/xlink" overflow="hidden"><defs><clipPath id="clip0"><rect x="45" y="410" width="413" height="99"/></clipPath></defs><g clip-path="url(#clip0)" transform="translate(-45 -410)"><path d="M229.423 453C231.451 453 233.279 453.144 234.907 453.431 236.534 453.718 237.95 454.053 239.153 454.436 240.356 454.82 241.335 455.203 242.089 455.586 242.844 455.969 243.363 456.256 243.646 456.447L241.665 462.193C241.24 461.906 240.627 461.595 239.825 461.26 239.023 460.925 238.115 460.589 237.101 460.254 236.086 459.919 234.978 459.644 233.775 459.428 232.572 459.213 231.357 459.105 230.13 459.105 227.536 459.105 225.2 459.56 223.125 460.47 221.049 461.379 219.28 462.696 217.817 464.42 216.355 466.144 215.235 468.238 214.456 470.704 213.678 473.17 213.289 475.936 213.289 479 213.289 481.969 213.631 484.674 214.315 487.116 214.999 489.558 216.025 491.653 217.393 493.401 218.761 495.148 220.471 496.501 222.523 497.459 224.575 498.416 226.97 498.895 229.706 498.895 232.867 498.895 235.485 498.56 237.56 497.89 239.636 497.219 241.193 496.621 242.231 496.094L244 501.84C243.67 502.079 243.08 502.379 242.231 502.738 241.382 503.097 240.32 503.444 239.047 503.779 237.773 504.114 236.287 504.401 234.588 504.641 232.89 504.88 231.05 505 229.069 505 225.625 505 222.488 504.425 219.657 503.276 216.827 502.127 214.397 500.451 212.369 498.249 210.34 496.046 208.772 493.329 207.663 490.097 206.554 486.865 206 483.166 206 479 206 474.834 206.625 471.135 207.875 467.903 209.125 464.671 210.812 461.954 212.935 459.751 215.058 457.549 217.534 455.873 220.365 454.724 223.196 453.575 226.215 453 229.423 453Z" fill="#7F7F7F" fill-rule="evenodd"/><path d="M329.09 453C332.141 453 334.914 453.323 337.408 453.97 339.902 454.616 341.731 455.322 342.893 456.088L340.641 461.762C339.624 461.14 338.11 460.53 336.1 459.931 334.09 459.332 331.754 459.033 329.09 459.033 327.734 459.033 326.474 459.177 325.312 459.464 324.15 459.751 323.132 460.182 322.261 460.757 321.389 461.332 320.699 462.062 320.19 462.947 319.682 463.833 319.427 464.875 319.427 466.072 319.427 467.413 319.694 468.538 320.226 469.448 320.759 470.357 321.51 471.159 322.479 471.854 323.447 472.548 324.573 473.182 325.857 473.757 327.14 474.332 328.557 474.906 330.107 475.481 332.286 476.343 334.284 477.204 336.1 478.066 337.917 478.928 339.491 479.958 340.823 481.155 342.155 482.352 343.184 483.776 343.91 485.428 344.637 487.08 345 489.079 345 491.425 345 495.783 343.39 499.134 340.169 501.481 336.948 503.827 332.407 505 326.547 505 324.561 505 322.733 504.868 321.062 504.605 319.391 504.342 317.902 504.03 316.594 503.671 315.286 503.312 314.16 502.929 313.216 502.522 312.271 502.115 311.533 501.768 311 501.481L313.107 495.735C314.221 496.357 315.916 497.052 318.192 497.818 320.469 498.584 323.254 498.967 326.547 498.967 333.909 498.967 337.59 496.477 337.59 491.497 337.59 489.965 337.263 488.66 336.609 487.583 335.955 486.506 335.071 485.572 333.957 484.782 332.843 483.992 331.572 483.309 330.143 482.735 328.714 482.16 327.201 481.586 325.603 481.011 323.762 480.389 322.019 479.682 320.372 478.892 318.725 478.102 317.296 477.169 316.085 476.091 314.875 475.014 313.918 473.733 313.216 472.249 312.513 470.764 312.162 468.969 312.162 466.862 312.162 462.505 313.664 459.105 316.667 456.663 319.669 454.221 323.811 453 329.09 453Z" fill="#7F7F7F" fill-rule="evenodd"/><path d="M174.267 454 180.733 454C182.476 457.608 184.147 461.251 185.745 464.931 187.343 468.61 188.953 472.47 190.576 476.511 192.198 480.551 193.857 484.82 195.552 489.317 197.247 493.815 199.063 498.709 201 504L193.3 504C192.477 501.836 191.702 499.707 190.975 497.615 190.249 495.522 189.498 493.394 188.723 491.229L165.914 491.229 161.337 504 154 504C155.937 498.709 157.753 493.815 159.448 489.317 161.143 484.82 162.802 480.551 164.424 476.511 166.047 472.47 167.657 468.61 169.255 464.931 170.853 461.251 172.524 457.608 174.267 454ZM177.318 462.009C175.623 465.616 174.013 469.38 172.488 473.3 170.962 477.22 169.449 481.273 167.947 485.457L186.689 485.457C185.14 481.273 183.602 477.22 182.077 473.3 180.551 469.38 178.965 465.616 177.318 462.009Z" fill="#7F7F7F" fill-rule="evenodd"/><path d="M254.663 454 260.767 454C262.06 456.116 263.448 458.618 264.932 461.504 266.416 464.39 267.901 467.408 269.385 470.558 270.869 473.709 272.305 476.86 273.694 480.01 275.082 483.161 276.351 486.035 277.5 488.632 278.649 486.035 279.918 483.161 281.306 480.01 282.695 476.86 284.131 473.709 285.615 470.558 287.099 467.408 288.584 464.39 290.068 461.504 291.552 458.618 292.94 456.116 294.233 454L300.337 454C301.965 470.114 303.186 486.78 304 504L297.177 504C296.938 497.266 296.651 490.592 296.316 483.978 295.981 477.365 295.55 471.22 295.023 465.544 294.544 466.362 293.91 467.54 293.12 469.079 292.33 470.619 291.48 472.362 290.57 474.31 289.661 476.258 288.691 478.327 287.662 480.515 286.633 482.704 285.663 484.832 284.753 486.9 283.844 488.969 282.994 490.893 282.204 492.672 281.414 494.452 280.78 495.919 280.301 497.074L274.699 497.074C274.22 495.919 273.586 494.452 272.796 492.672 272.006 490.893 271.156 488.969 270.247 486.9 269.337 484.832 268.367 482.704 267.338 480.515 266.309 478.327 265.339 476.258 264.429 474.31 263.52 472.362 262.67 470.619 261.88 469.079 261.09 467.54 260.456 466.362 259.977 465.544 259.45 471.22 259.019 477.365 258.684 483.978 258.349 490.592 258.062 497.266 257.823 504L251 504C251.192 499.671 251.407 495.306 251.646 490.905 251.886 486.504 252.161 482.175 252.472 477.918 252.783 473.661 253.119 469.512 253.478 465.472 253.837 461.431 254.232 457.608 254.663 454Z" fill="#7F7F7F" fill-rule="evenodd"/><path d="M441.097 470C443.256 470 445.294 470.371 447.211 471.112 449.129 471.853 450.813 472.957 452.263 474.423 453.713 475.89 454.865 477.719 455.719 479.91 456.573 482.102 457 484.632 457 487.5 457 490.368 456.573 492.898 455.719 495.09 454.865 497.281 453.713 499.11 452.263 500.577 450.813 502.043 449.129 503.147 447.211 503.888 445.294 504.629 443.256 505 441.097 505 438.905 505 436.835 504.629 434.885 503.888 432.936 503.147 431.228 502.043 429.761 500.577 428.295 499.11 427.135 497.281 426.281 495.09 425.427 492.898 425 490.368 425 487.5 425 484.632 425.427 482.102 426.281 479.91 427.135 477.719 428.295 475.89 429.761 474.423 431.228 472.957 432.936 471.853 434.885 471.112 436.835 470.371 438.905 470 441.097 470ZM441 474.109C439.292 474.109 437.753 474.423 436.384 475.052 435.014 475.68 433.854 476.575 432.903 477.735 431.953 478.895 431.22 480.305 430.704 481.965 430.188 483.625 429.93 485.47 429.93 487.5 429.93 489.53 430.188 491.375 430.704 493.035 431.22 494.695 431.953 496.105 432.903 497.265 433.854 498.425 435.014 499.32 436.384 499.948 437.753 500.577 439.292 500.891 441 500.891 442.708 500.891 444.239 500.577 445.592 499.948 446.946 499.32 448.098 498.425 449.048 497.265 449.999 496.105 450.732 494.695 451.248 493.035 451.763 491.375 452.021 489.53 452.021 487.5 452.021 485.47 451.763 483.625 451.248 481.965 450.732 480.305 449.999 478.895 449.048 477.735 448.098 476.575 446.946 475.68 445.592 475.052 444.239 474.423 442.708 474.109 441 474.109Z" fill="#9933FF" fill-rule="evenodd"/><path d="M376.69 471C381.287 471 384.821 471.872 387.293 473.616 389.764 475.361 391 477.961 391 481.419 391 483.304 390.661 484.915 389.985 486.251 389.308 487.586 388.332 488.671 387.056 489.504 385.781 490.336 384.231 490.941 382.404 491.319 380.578 491.696 378.516 491.884 376.218 491.884L372.581 491.884 372.581 504 368 504 368 471.801C369.291 471.487 370.731 471.275 372.321 471.165 373.911 471.055 375.368 471 376.69 471ZM377.068 475.007C375.116 475.007 373.62 475.054 372.581 475.149L372.581 487.971 376.029 487.971C377.603 487.971 379.02 487.869 380.279 487.665 381.539 487.461 382.601 487.115 383.467 486.628 384.333 486.141 385.002 485.473 385.474 484.624 385.947 483.776 386.183 482.691 386.183 481.371 386.183 480.114 385.939 479.077 385.451 478.26 384.963 477.443 384.302 476.791 383.467 476.304 382.633 475.816 381.665 475.479 380.563 475.29 379.461 475.102 378.296 475.007 377.068 475.007Z" fill="#9933FF" fill-rule="evenodd"/><path d="M405.762 471C410.397 471 413.929 471.864 416.357 473.593 418.786 475.321 420 477.899 420 481.324 420 483.493 419.421 485.347 418.262 486.887 417.103 488.427 415.397 489.574 413.143 490.329 413.651 490.957 414.294 491.782 415.072 492.804 415.849 493.825 416.651 494.956 417.476 496.198 418.302 497.439 419.119 498.736 419.929 500.087 420.738 501.439 421.429 502.743 422 504L416.952 504C416.317 502.806 415.627 501.596 414.881 500.37 414.135 499.144 413.381 497.974 412.619 496.858 411.857 495.742 411.103 494.697 410.357 493.723 409.611 492.749 408.937 491.9 408.333 491.177 407.921 491.209 407.5 491.224 407.071 491.224 406.643 491.224 406.206 491.224 405.762 491.224L401.619 491.224 401.619 504 397 504 397 471.801C398.302 471.487 399.754 471.275 401.357 471.165 402.96 471.055 404.429 471 405.762 471ZM406.143 475.007C404.175 475.007 402.667 475.054 401.619 475.149L401.619 487.453 404.905 487.453C406.492 487.453 407.921 487.374 409.19 487.217 410.46 487.06 411.532 486.761 412.405 486.321 413.278 485.881 413.952 485.261 414.429 484.459 414.905 483.658 415.143 482.597 415.143 481.277 415.143 480.051 414.905 479.03 414.429 478.213 413.952 477.396 413.31 476.751 412.5 476.28 411.691 475.809 410.738 475.479 409.643 475.29 408.548 475.102 407.381 475.007 406.143 475.007Z" fill="#9933FF" fill-rule="evenodd"/><path d="M121.128 468.024C122.134 468.024 123.045 468.072 123.86 468.167 124.675 468.263 125.226 468.359 125.514 468.455L125.514 485.352C125.514 485.927 125.538 486.527 125.586 487.15 125.634 487.773 125.729 488.396 125.873 489.019 125.058 489.451 124.136 489.774 123.105 489.99 122.074 490.206 121.056 490.313 120.049 490.313 117.269 490.313 115.064 489.307 113.434 487.293 111.804 485.28 110.99 482.572 110.99 479.169 110.99 475.957 111.828 473.297 113.506 471.187 115.184 469.078 117.724 468.024 121.128 468.024ZM119.546 453.643C123.045 453.643 126.197 454.218 129.001 455.369 131.805 456.519 134.19 458.101 136.155 460.115 138.121 462.128 139.631 464.465 140.685 467.125 141.74 469.785 142.267 472.625 142.267 475.645 142.267 477.467 142.123 479.252 141.836 481.002 141.548 482.752 141.105 484.322 140.505 485.712 139.906 487.102 139.139 488.228 138.205 489.091 137.27 489.954 136.179 490.385 134.933 490.385 134.07 490.385 133.375 490.074 132.848 489.451 132.32 488.827 132.057 487.749 132.057 486.215L132.057 464.213C130.954 463.829 129.385 463.446 127.347 463.063 125.31 462.679 123.069 462.487 120.624 462.487 118.036 462.487 115.723 462.919 113.686 463.782 111.649 464.644 109.923 465.831 108.509 467.341 107.095 468.851 106.028 470.624 105.309 472.661 104.59 474.699 104.231 476.868 104.231 479.169 104.231 481.901 104.614 484.298 105.381 486.359 106.148 488.42 107.227 490.158 108.617 491.572 110.007 492.986 111.649 494.052 113.542 494.771 115.436 495.49 117.533 495.85 119.834 495.85 121.319 495.85 122.805 495.646 124.291 495.239 125.777 494.831 127.048 494.34 128.102 493.765 128.773 494.484 129.612 495.059 130.619 495.49 131.625 495.922 132.896 496.138 134.43 496.138 136.347 496.138 138.169 495.706 139.894 494.843L144 491.3 144 508 131.878 508 131.266 503.471C130.739 503.663 129.552 503.927 127.707 504.262 125.861 504.598 123.524 504.766 120.696 504.766 117.053 504.766 113.71 504.226 110.666 503.148 107.622 502.069 104.986 500.464 102.757 498.331 100.528 496.197 98.7902 493.537 97.5439 490.349 96.2976 487.162 95.6744 483.459 95.6744 479.24 95.6744 475.214 96.2616 471.619 97.436 468.455 98.6105 465.291 100.252 462.619 102.361 460.438 104.47 458.257 106.987 456.579 109.911 455.405 112.835 454.231 116.047 453.643 119.546 453.643ZM46 410 144 410 144 460.692 143.435 459.701C142.393 458.239 141.212 456.903 139.894 455.692 137.258 453.272 134.19 451.426 130.691 450.156 127.191 448.886 123.476 448.251 119.546 448.251 115.519 448.251 111.696 448.898 108.077 450.192 104.458 451.486 101.271 453.416 98.5144 455.98 95.7582 458.545 93.5652 461.768 91.9353 465.651 90.3057 469.534 89.4907 474.063 89.4907 479.24 89.4907 484.609 90.3176 489.247 91.9713 493.154 93.6251 497.06 95.8661 500.272 98.6942 502.788 100.108 504.047 101.642 505.143 103.296 506.078L107.706 508 46 508Z" fill="#9966FF" fill-rule="evenodd"/></g></svg>