<svg width="43" height="42" xmlns="http://www.w3.org/2000/svg" xmlns:xlink="http://www.w3.org/1999/xlink" overflow="hidden"><defs><clipPath id="clip0"><rect x="925" y="159" width="43" height="42"/></clipPath></defs><g clip-path="url(#clip0)" transform="translate(-925 -159)"><path d="M940.291 169 928 177.123 928 195 936.571 195 936.571 181.405 943.429 181.405 943.429 195 952 195 952 176.732Z" fill="#9933FF" fill-rule="evenodd"/><path d="M943 165 943 167.517 946.385 169.733 949.312 171.667 951.462 171.667 951.462 173.083 954.846 175.317 954.846 178.333 958.231 178.333 958.231 181.667 954.846 181.667 954.846 185 958.231 185 958.231 188.333 954.846 188.333 954.846 195 965 195 965 165 943 165ZM958.231 175 954.846 175 954.846 171.667 958.231 171.667 958.231 175Z" fill="#9933FF" fill-rule="evenodd"/></g></svg>