<svg width="282" height="231" xmlns="http://www.w3.org/2000/svg" xmlns:xlink="http://www.w3.org/1999/xlink" overflow="hidden"><defs><clipPath id="clip0"><rect x="445" y="278" width="282" height="231"/></clipPath></defs><g clip-path="url(#clip0)" transform="translate(-445 -278)"><path d="M446 283.882C446 281.186 448.186 279 450.882 279L721.118 279C723.814 279 726 281.186 726 283.882L726 503.118C726 505.814 723.814 508 721.118 508L450.882 508C448.186 508 446 505.814 446 503.118Z" fill="#FFFFFF" fill-rule="evenodd"/><path d="M647.6 331 524.4 331C515.93 331 509.077 337.975 509.077 346.5L509 439.5C509 448.025 515.93 455 524.4 455L647.6 455C656.07 455 663 448.025 663 439.5L663 346.5C663 337.975 656.07 331 647.6 331ZM609.1 439.5 524.4 439.5 524.4 408.5 609.1 408.5 609.1 439.5ZM609.1 400.75 524.4 400.75 524.4 369.75 609.1 369.75 609.1 400.75ZM647.6 439.5 616.8 439.5 616.8 369.75 647.6 369.75 647.6 439.5Z" fill="#D9D9D9" fill-rule="evenodd"/><path d="M602 429.5C602 401.057 624.833 378 653 378 681.167 378 704 401.057 704 429.5 704 457.943 681.167 481 653 481 624.833 481 602 457.943 602 429.5Z" fill="#FFFFFF" fill-rule="evenodd"/><path d="M652.96 390C630.88 390 613 407.696 613 429.5 613 451.304 630.88 469 652.96 469 675.08 469 693 451.304 693 429.5 693 407.696 675.08 390 652.96 390ZM653 461.1C635.32 461.1 621 446.959 621 429.5 621 412.041 635.32 397.9 653 397.9 670.68 397.9 685 412.041 685 429.5 685 446.959 670.68 461.1 653 461.1ZM667 425.55C670.32 425.55 673 422.904 673 419.625 673 416.347 670.32 413.7 667 413.7 663.68 413.7 661 416.347 661 419.625 661 422.904 663.68 425.55 667 425.55ZM639 425.55C642.32 425.55 645 422.904 645 419.625 645 416.347 642.32 413.7 639 413.7 635.68 413.7 633 416.347 633 419.625 633 422.904 635.68 425.55 639 425.55ZM653 451.225C662.32 451.225 670.24 445.458 673.44 437.4L632.56 437.4C635.76 445.458 643.68 451.225 653 451.225Z" fill="#BDD7EE" fill-rule="evenodd"/></g></svg>