<svg width="282" height="230" xmlns="http://www.w3.org/2000/svg" xmlns:xlink="http://www.w3.org/1999/xlink" overflow="hidden"><defs><clipPath id="clip0"><rect x="943" y="551" width="282" height="230"/></clipPath></defs><g clip-path="url(#clip0)" transform="translate(-943 -551)"><path d="M944 555.904C944 553.195 946.195 551 948.904 551L1220.1 551C1222.8 551 1225 553.195 1225 555.904L1225 776.096C1225 778.805 1222.8 781 1220.1 781L948.904 781C946.195 781 944 778.805 944 776.096Z" fill="#FFFFFF" fill-rule="evenodd"/><path d="M1084.5 581C1097.59 581 1109.7 582.096 1120.84 584.288 1131.98 586.481 1140.79 589.451 1147.28 593.2 1153.76 596.949 1157 601.016 1157 605.4L1157 617.6C1157 621.984 1153.76 626.051 1147.28 629.8 1140.79 633.549 1131.98 636.52 1120.84 638.712 1109.7 640.904 1097.59 642 1084.5 642 1071.41 642 1059.29 640.904 1048.16 638.712 1037.02 636.52 1028.21 633.549 1021.72 629.8 1015.24 626.051 1012 621.984 1012 617.6L1012 605.4C1012 601.016 1015.24 596.949 1021.72 593.2 1028.21 589.451 1037.02 586.481 1048.16 584.288 1059.29 582.096 1071.41 581 1084.5 581Z" fill="#D9D9D9" fill-rule="evenodd"/><path d="M1012 638C1019.49 643.258 1029.72 647.233 1042.68 649.925 1055.64 652.617 1069.58 653.962 1084.5 653.962 1099.42 653.962 1113.36 652.617 1126.32 649.925 1139.28 647.233 1149.51 643.258 1157 638L1157 653.962C1157 655.042 1156.8 656.103 1156.39 657.143L1156.06 657.699 1154.87 658.001C1152.56 659.376 1150.33 660.925 1148.22 662.637L1147.43 663.387 1147.46 663.121 1145.78 664.955 1142.29 668.26 1142.05 668.572 1141.98 668.607C1136.24 671.09 1129.2 673.141 1120.84 674.761 1109.7 676.92 1097.59 678 1084.5 678 1071.41 678 1059.29 676.92 1048.16 674.761 1037.02 672.601 1028.21 669.674 1021.72 665.981 1015.24 662.288 1012 658.282 1012 653.962L1012 638Z" fill="#D9D9D9" fill-rule="evenodd"/><path d="M1012 674C1019.45 679.258 1029.63 683.233 1042.53 685.925 1055.43 688.617 1069.31 689.962 1084.15 689.962 1098.99 689.962 1112.87 688.617 1125.77 685.925L1126 685.867 1116.3 696.499 1115.95 696.764C1114.23 699.438 1112.49 702.934 1111.19 707.388L1110.17 712.181 1102.96 713.19C1096.93 713.73 1090.66 714 1084.15 714 1071.12 714 1059.07 712.92 1047.98 710.761 1036.9 708.601 1028.13 705.674 1021.68 701.981 1015.23 698.288 1012 694.282 1012 689.962L1012 674Z" fill="#D9D9D9" fill-rule="evenodd"/><path d="M1012 710C1019.48 715.39 1029.68 719.464 1042.62 722.223 1055.56 724.982 1069.48 726.362 1084.37 726.362 1091.81 726.362 1099.01 726.017 1105.97 725.327L1109.43 724.794 1110.99 734.177C1111.85 737.252 1112.98 740.031 1114.31 742.54L1118 748.058 1103.24 750.17C1097.19 750.723 1090.9 751 1084.37 751 1071.3 751 1059.21 749.893 1048.09 747.68 1036.97 745.466 1028.18 742.466 1021.71 738.681 1015.24 734.896 1012 730.789 1012 726.362L1012 710Z" fill="#D9D9D9" fill-rule="evenodd"/><path d="M1184.87 711.465C1178.39 694.751 1155.33 693.849 1160.9 669.556 1161.31 667.754 1159.37 666.361 1157.8 667.303 1142.83 676.07 1132.06 693.644 1141.09 716.667 1141.84 718.552 1139.61 720.313 1138 719.084 1130.53 713.472 1129.75 705.402 1130.41 699.625 1130.65 697.495 1127.85 696.471 1126.65 698.233 1123.85 702.493 1121 709.375 1121 719.74 1122.57 742.681 1142.08 749.727 1149.1 750.628 1159.12 751.898 1169.98 750.054 1177.77 742.967 1186.36 735.061 1189.49 722.443 1184.87 711.465ZM1146.58 732.07C1152.52 730.637 1155.58 726.376 1156.4 722.607 1157.76 716.749 1152.44 711.014 1156.03 701.756 1157.39 709.416 1169.52 714.209 1169.52 722.566 1169.85 732.931 1158.55 741.82 1146.58 732.07Z" fill="#F4B183" fill-rule="evenodd"/></g></svg>