<svg width="282" height="231" xmlns="http://www.w3.org/2000/svg" xmlns:xlink="http://www.w3.org/1999/xlink" overflow="hidden"><defs><clipPath id="clip0"><rect x="448" y="823" width="282" height="231"/></clipPath></defs><g clip-path="url(#clip0)" transform="translate(-448 -823)"><path d="M449 828.882C449 826.186 451.186 824 453.882 824L724.118 824C726.814 824 729 826.186 729 828.882L729 1048.12C729 1050.81 726.814 1053 724.118 1053L453.882 1053C451.186 1053 449 1050.81 449 1048.12Z" fill="#FFFFFF" fill-rule="evenodd"/><path d="M507 982.429 539.063 982.429 540.8 985.007C542.974 987.182 545.976 988.528 549.292 988.528L577.222 988.528 577.222 1000 507 1000ZM507 947.286 537.283 947.286 537.283 964.857 507 964.857ZM507 912.143 549.862 912.143 549.794 912.814 550.157 916.414 549.292 916.414C542.66 916.414 537.283 921.795 537.283 928.433L537.283 929.714 507 929.714ZM594.778 877 665 877 665 1000 594.778 1000 594.778 988.528 612.603 988.528C619.235 988.528 624.611 983.147 624.611 976.509L624.611 928.433C624.611 921.795 619.235 916.414 612.603 916.414L611.738 916.414 612.1 912.814C612.1 902.051 606.652 892.561 598.365 886.958L594.778 885.009ZM507 877 577.222 877 577.222 882.008 574.669 882.266C568.585 883.512 563.147 886.533 558.919 890.765L555.781 894.571 507 894.571Z" fill="#D9D9D9" fill-rule="evenodd"/><path d="M607.25 921.333 602.875 921.333 602.875 912.667C602.875 900.707 593.075 891 581 891 568.925 891 559.125 900.707 559.125 912.667L559.125 921.333 554.75 921.333C549.938 921.333 546 925.233 546 930L546 973.333C546 978.1 549.938 982 554.75 982L607.25 982C612.062 982 616 978.1 616 973.333L616 930C616 925.233 612.062 921.333 607.25 921.333ZM581 960.333C576.187 960.333 572.25 956.433 572.25 951.667 572.25 946.9 576.187 943 581 943 585.813 943 589.75 946.9 589.75 951.667 589.75 956.433 585.813 960.333 581 960.333ZM594.563 921.333 567.438 921.333 567.438 912.667C567.438 905.257 573.519 899.233 581 899.233 588.481 899.233 594.563 905.257 594.563 912.667L594.563 921.333Z" fill="#A2CD85" fill-rule="evenodd"/></g></svg>